<svg width="20" height="17" viewBox="0 0 20 17" fill="none" xmlns="http://www.w3.org/2000/svg">
<path d="M19.5821 2.52994C19.3521 1.5341 18.6744 0.749806 17.8139 0.483645C16.2542 0 10 0 10 0C10 0 3.74586 0 2.18613 0.483645C1.32565 0.749848 0.647936 1.5341 0.417919 2.52994C0 4.33496 0 8.10096 0 8.10096C0 8.10096 0 11.867 0.417919 13.672C0.647936 14.6678 1.32565 15.4194 2.18613 15.6856C3.74586 16.1692 10 16.1692 10 16.1692C10 16.1692 16.2541 16.1692 17.8139 15.6856C18.6744 15.4194 19.3521 14.6678 19.5821 13.672C20 11.867 20 8.10096 20 8.10096C20 8.10096 20 4.33496 19.5821 2.52994V2.52994ZM7.95453 11.5202V4.68171L13.1818 8.10104L7.95453 11.5202V11.5202Z" fill="#FF0000"/>
</svg>
