<svg width="20" height="13" viewBox="0 0 20 13" fill="none" xmlns="http://www.w3.org/2000/svg">
<path d="M19.5442 0.820713C19.6816 0.347952 19.5442 0 18.8833 0H16.6965C16.1395 0 15.8834 0.298785 15.746 0.631609C15.746 0.631609 14.6322 3.39632 13.0579 5.18903C12.5493 5.70717 12.3154 5.87359 12.0369 5.87359C11.8995 5.87359 11.6879 5.70717 11.6879 5.23441V0.820713C11.6879 0.2534 11.532 0 11.0716 0H7.63352C7.28452 0 7.0766 0.264746 7.0766 0.510582C7.0766 1.04764 7.86371 1.17245 7.9454 2.68528V5.96814C7.9454 6.68673 7.81916 6.81911 7.5407 6.81911C6.79814 6.81911 4.99372 4.04305 3.92443 0.866099C3.70909 0.249618 3.49746 0 2.93683 0H0.749986C0.126235 0 0 0.298785 0 0.631609C0 1.22161 0.74256 4.15274 3.45662 8.0256C5.26475 10.6693 7.81173 12.1027 10.1285 12.1027C11.5208 12.1027 11.6916 11.785 11.6916 11.2366C11.6916 8.71015 11.5654 8.47188 12.2634 8.47188C12.5864 8.47188 13.1433 8.63829 14.4428 9.91286C15.9279 11.4257 16.173 12.1027 17.0046 12.1027H19.1915C19.8152 12.1027 20.1308 11.785 19.9489 11.1572C19.5331 9.83722 16.7225 7.12168 16.5962 6.94013C16.2732 6.51654 16.366 6.32744 16.5962 5.94923C16.5999 5.94545 19.2694 2.11797 19.5442 0.820713V0.820713Z" fill="#0262F2"/>
</svg>
