<svg width="22" height="22" viewBox="0 0 22 22" fill="none" xmlns="http://www.w3.org/2000/svg">
<path d="M7.33421 11C7.33421 8.97503 8.97539 7.33304 11.0004 7.33304C13.0255 7.33304 14.6675 8.97503 14.6675 11C14.6675 13.025 13.0255 14.667 11.0004 14.667C8.97539 14.667 7.33421 13.025 7.33421 11ZM5.35185 11C5.35185 14.1196 7.88072 16.6484 11.0004 16.6484C14.1202 16.6484 16.649 14.1196 16.649 11C16.649 7.8804 14.1202 5.35163 11.0004 5.35163C7.88072 5.35163 5.35185 7.8804 5.35185 11ZM15.5526 5.12767C15.5523 5.85669 16.1431 6.44791 16.8721 6.4482C17.6012 6.44849 18.1924 5.85774 18.1927 5.12873C18.193 4.39971 17.6022 3.80849 16.8732 3.8082H16.8727C16.144 3.80854 15.5532 4.399 15.5526 5.12767ZM6.55626 19.9537C5.48376 19.9049 4.90083 19.7263 4.51344 19.5753C3.99985 19.3754 3.6334 19.1373 3.24812 18.7525C2.86284 18.3678 2.62435 18.0017 2.42529 17.4882C2.27427 17.101 2.09563 16.5179 2.04687 15.4454C1.99354 14.2859 1.9829 13.9376 1.9829 11.0001C1.9829 8.06256 1.99442 7.71522 2.04687 6.55477C2.09572 5.48231 2.27568 4.90037 2.42529 4.51202C2.62523 3.99846 2.86337 3.63202 3.24812 3.24676C3.63287 2.8615 3.99897 2.62302 4.51344 2.42396C4.90065 2.27295 5.48376 2.09431 6.55626 2.04556C7.7158 1.99223 8.06412 1.98158 11.0004 1.98158C13.9368 1.98158 14.2854 1.99311 15.4459 2.04556C16.5184 2.0944 17.1004 2.27436 17.4888 2.42396C18.0024 2.62302 18.3688 2.86202 18.7541 3.24676C19.1394 3.6315 19.377 3.99846 19.5769 4.51202C19.7279 4.89922 19.9066 5.48231 19.9553 6.55477C20.0087 7.71522 20.0193 8.06256 20.0193 11.0001C20.0193 13.9376 20.0087 14.285 19.9553 15.4454C19.9065 16.5179 19.727 17.1008 19.5769 17.4882C19.377 18.0017 19.1388 18.3682 18.7541 18.7525C18.3693 19.1369 18.0024 19.3754 17.4888 19.5753C17.1015 19.7263 16.5184 19.905 15.4459 19.9537C14.2864 20.0071 13.9381 20.0177 11.0004 20.0177C8.0628 20.0177 7.71544 20.0071 6.55626 19.9537ZM6.46518 0.066616C5.29412 0.119944 4.4939 0.305624 3.79506 0.577544C3.07132 0.858352 2.45864 1.23508 1.8464 1.84633C1.23416 2.45758 0.858386 3.0712 0.577567 3.79491C0.305636 4.49416 0.119949 5.2939 0.0666187 6.46492C0.0124085 7.63778 0 8.01275 0 11C0 13.9872 0.0124085 14.3622 0.0666187 15.5351C0.119949 16.7062 0.305636 17.5058 0.577567 18.2051C0.858386 18.9284 1.23425 19.5427 1.8464 20.1537C2.45855 20.7647 3.07132 21.1409 3.79506 21.4225C4.49522 21.6944 5.29412 21.8801 6.46518 21.9334C7.63871 21.9867 8.01307 22 11.0004 22C13.9878 22 14.3628 21.9876 15.5357 21.9334C16.7069 21.8801 17.5065 21.6944 18.2058 21.4225C18.9291 21.1409 19.5422 20.7649 20.1545 20.1537C20.7667 19.5424 21.1417 18.9284 21.4233 18.2051C21.6952 17.5058 21.8818 16.7061 21.9343 15.5351C21.9876 14.3613 22 13.9872 22 11C22 8.01275 21.9876 7.63778 21.9343 6.46492C21.8809 5.29382 21.6952 4.49372 21.4233 3.79491C21.1417 3.07164 20.7658 2.45854 20.1545 1.84633C19.5432 1.23411 18.9291 0.858352 18.2067 0.577544C17.5065 0.305624 16.7068 0.119064 15.5366 0.066616C14.3637 0.013288 13.9887 0 11.0013 0C8.01395 0 7.63871 0.012408 6.46518 0.066616Z" fill="#0262F2"/>
</svg>
