<svg width="14" height="16" viewBox="0 0 14 16" fill="none" xmlns="http://www.w3.org/2000/svg">
<path d="M12.5 7C12.0858 7 11.75 6.66421 11.75 6.25V4.75C11.75 2.13125 9.61875 0 7 0C4.38125 0 2.25 2.13125 2.25 4.75V6.25C2.25 6.66421 1.91421 7 1.5 7C0.671875 7 0 7.67188 0 8.5V14.5C0 15.3281 0.671875 16 1.5 16H12.5C13.3281 16 14 15.3281 14 14.5V8.5C14 7.67188 13.3281 7 12.5 7ZM9.25 4.75C9.25 5.99264 8.24264 7 7 7C5.75736 7 4.75 5.99264 4.75 4.75C4.75 3.50938 5.75938 2.5 7 2.5C8.24063 2.5 9.25 3.50938 9.25 4.75Z" fill="white"/>
</svg>
