<svg xmlns="http://www.w3.org/2000/svg" x="0px" y="0px"
width="20" height="20"
viewBox="0 0 226 226"
><g transform="translate(4.746,4.746) scale(0.958,0.958)"><g fill="none" fill-rule="nonzero" stroke="none" stroke-width="none" stroke-linecap="butt" stroke-linejoin="none" stroke-miterlimit="10" stroke-dasharray="" stroke-dashoffset="0" font-family="none" font-weight="none" font-size="none" text-anchor="none"><g fill="#000000" stroke="#ffffff" stroke-width="10" stroke-linejoin="round"><path d="M173.26667,97.93333c0,18.05369 -6.41097,34.63363 -17.053,47.62774l44.9793,44.9793c1.96801,1.88948 2.76078,4.69528 2.07256,7.33527c-0.68822,2.64 -2.74989,4.70167 -5.38989,5.38989c-2.64,0.68822 -5.44579,-0.10455 -7.33527,-2.07256l-44.9793,-44.9793c-12.9941,10.64202 -29.57404,17.053 -47.62774,17.053c-41.51622,0 -75.33333,-33.81711 -75.33333,-75.33333c0,-41.51622 33.81711,-75.33333 75.33333,-75.33333c41.51622,0 75.33333,33.81711 75.33333,75.33333zM37.66667,97.93333c0,33.37359 26.89308,60.26667 60.26667,60.26667c33.37359,0 60.26667,-26.89307 60.26667,-60.26667c0,-33.37359 -26.89307,-60.26667 -60.26667,-60.26667c-33.37359,0 -60.26667,26.89308 -60.26667,60.26667z"></path></g><path d="M0,226v-226h226v226z" fill="none" stroke="none" stroke-width="0" stroke-linejoin="miter"></path><g fill="#FFFFFF" stroke="none" stroke-width="1" stroke-linejoin="miter"><path d="M97.93333,22.6c-41.51622,0 -75.33333,33.81711 -75.33333,75.33333c0,41.51622 33.81711,75.33333 75.33333,75.33333c18.05369,0 34.63363,-6.41097 47.62774,-17.053l44.9793,44.9793c1.88948,1.96801 4.69528,2.76078 7.33527,2.07256c2.64,-0.68822 4.70167,-2.74989 5.38989,-5.38989c0.68822,-2.64 -0.10455,-5.44579 -2.07256,-7.33527l-44.9793,-44.9793c10.64202,-12.9941 17.053,-29.57404 17.053,-47.62774c0,-41.51622 -33.81711,-75.33333 -75.33333,-75.33333zM97.93333,37.66667c33.37359,0 60.26667,26.89308 60.26667,60.26667c0,33.37359 -26.89307,60.26667 -60.26667,60.26667c-33.37359,0 -60.26667,-26.89307 -60.26667,-60.26667c0,-33.37359 26.89308,-60.26667 60.26667,-60.26667z"></path></g><path d="" fill="none" stroke="none" stroke-width="1" stroke-linejoin="miter"></path></g></g></svg>