<svg width="20" height="18" viewBox="0 0 20 18" fill="none" xmlns="http://www.w3.org/2000/svg">
<path d="M17.6562 5.06696C17.6562 6.57589 16.4286 7.79018 14.933 7.79018C13.4241 7.79018 12.2098 6.57143 12.2098 5.06696C12.2098 3.5625 13.4286 2.34375 14.933 2.34375C16.4286 2.34375 17.6562 3.55804 17.6562 5.06696ZM20 5.07589C20 7.88839 17.7232 10.1562 14.9241 10.1562L10.0446 13.7188C9.86607 15.6384 8.23661 17.1473 6.27232 17.1473C4.46429 17.1473 2.9375 15.8616 2.56696 14.1563L0 13.125V8.33482L4.33929 10.0893C5.01339 9.67857 5.77679 9.49554 6.66071 9.57589L9.83036 5.03571C9.85268 2.25446 12.1295 0 14.9196 0C17.7232 0 20 2.27679 20 5.07589ZM9.0625 13.3482C9.0625 11.7991 7.82143 10.558 6.27232 10.558C6.07143 10.558 5.87054 10.5804 5.66964 10.625L6.83036 11.0938C7.96875 11.5491 8.52679 12.8348 8.06696 13.9732C7.61161 15.1116 6.31696 15.6696 5.17857 15.2009C4.72321 15.0223 4.26339 14.8304 3.80804 14.6562C4.27679 15.5357 5.20089 16.1384 6.27232 16.1384C7.82143 16.1384 9.0625 14.8973 9.0625 13.3482ZM18.3259 5.07589C18.3259 3.20089 16.7946 1.67411 14.9241 1.67411C13.0357 1.67411 11.5089 3.20089 11.5089 5.07589C11.5089 6.95982 13.0402 8.47768 14.9241 8.47768C16.7946 8.48214 18.3259 6.96429 18.3259 5.07589Z" fill="white"/>
</svg>
