<svg width="200" height="200" viewBox="0 0 200 200" fill="none" xmlns="http://www.w3.org/2000/svg">
<path d="M200 100C200 155.229 155.229 200 100 200C44.7714 200 0 155.229 0 100C0 44.7714 44.7714 0 100 0C155.229 0 200 44.7714 200 100ZM88.4331 152.949L162.627 78.7556C165.146 76.2363 165.146 72.1512 162.627 69.6319L153.503 60.5081C150.983 57.9883 146.898 57.9883 144.379 60.5081L83.871 121.015L55.6214 92.7657C53.102 90.2464 49.0169 90.2464 46.4972 92.7657L37.3734 101.89C34.854 104.409 34.854 108.494 37.3734 111.013L79.3089 152.949C81.8286 155.469 85.9133 155.469 88.4331 152.949V152.949Z" fill="#069514"/>
</svg>
