<svg width="23" height="14" viewBox="0 0 23 14" fill="none" xmlns="http://www.w3.org/2000/svg">
<path d="M22.4758 0.93674C22.6338 0.397143 22.4758 0 21.7158 0H19.2009C18.5605 0 18.2659 0.341025 18.1079 0.720901C18.1079 0.720901 16.827 3.87646 15.0166 5.92261C14.4317 6.51401 14.1627 6.70395 13.8424 6.70395C13.6845 6.70395 13.4411 6.51401 13.4411 5.97441V0.93674C13.4411 0.289224 13.2618 0 12.7323 0H8.77855C8.37719 0 8.13809 0.302174 8.13809 0.582764C8.13809 1.19575 9.04327 1.3382 9.13721 3.06491V6.81187C9.13721 7.63205 8.99203 7.78314 8.67181 7.78314C7.81786 7.78314 5.74278 4.61463 4.5131 0.988541C4.26545 0.284907 4.02208 0 3.37735 0H0.862484C0.145171 0 0 0.341025 0 0.720901C0 1.39432 0.853944 4.73982 3.97511 9.16019C6.05447 12.1776 8.98349 13.8137 11.6478 13.8137C13.2489 13.8137 13.4454 13.4511 13.4454 12.8251C13.4454 9.94153 13.3002 9.66957 14.1029 9.66957C14.4744 9.66957 15.1148 9.85951 16.6092 11.3143C18.3171 13.041 18.5989 13.8137 19.5553 13.8137H22.0702C22.7875 13.8137 23.1504 13.4511 22.9412 12.7345C22.463 11.2279 19.2308 8.12848 19.0857 7.92128C18.7142 7.4378 18.8209 7.22196 19.0857 6.79028C19.0899 6.78597 22.1599 2.41739 22.4758 0.93674V0.93674Z" fill="white"/>
</svg>
