<svg width="22" height="22" viewBox="0 0 22 22" fill="none" xmlns="http://www.w3.org/2000/svg">
<path d="M18.7049 4.17227C16.6473 2.36758 13.9071 1.375 10.9951 1.375C4.98437 1.375 0.0933036 5.65469 0.0933036 10.9141C0.0933036 12.5941 0.594196 14.2355 1.54687 15.6836L0 20.625L5.77991 19.2973C7.37098 20.0578 9.16339 20.4574 10.9902 20.4574H10.9951C17.0009 20.4574 22 16.1777 22 10.9184C22 8.37031 20.7625 5.97695 18.7049 4.17227V4.17227ZM10.9951 18.8504C9.36473 18.8504 7.76875 18.468 6.37902 17.7461L6.05 17.5742L2.62232 18.3605L3.53571 15.4344L3.31964 15.1336C2.41116 13.8703 1.93482 12.4137 1.93482 10.9141C1.93482 6.54414 6.00089 2.98633 11 2.98633C13.421 2.98633 15.6946 3.81133 17.4036 5.31094C19.1125 6.81055 20.1634 8.8 20.1585 10.9184C20.1585 15.2926 15.9893 18.8504 10.9951 18.8504V18.8504ZM15.9647 12.9121C15.6946 12.7918 14.354 12.216 14.1036 12.1387C13.8531 12.057 13.6714 12.0184 13.4897 12.259C13.308 12.4996 12.7875 13.0324 12.6254 13.1957C12.4683 13.3547 12.3063 13.3762 12.0362 13.2559C10.4353 12.5555 9.38438 12.0055 8.32857 10.4199C8.04866 9.99883 8.60848 10.0289 9.12902 9.11797C9.21741 8.95898 9.17321 8.82148 9.10446 8.70117C9.03571 8.58086 8.49062 7.40781 8.26473 6.93086C8.04375 6.4668 7.81786 6.53125 7.65089 6.52266C7.49375 6.51406 7.31205 6.51406 7.13036 6.51406C6.94866 6.51406 6.65402 6.57422 6.40357 6.81055C6.15312 7.05117 5.45089 7.62695 5.45089 8.8C5.45089 9.97305 6.42813 11.1074 6.56071 11.2664C6.69821 11.4254 8.4808 13.8316 11.2161 14.8672C12.9446 15.5203 13.6223 15.5762 14.4866 15.4645C15.0121 15.3957 16.0973 14.8887 16.3232 14.3301C16.5491 13.7715 16.5491 13.2945 16.4804 13.1957C16.4165 13.0883 16.2348 13.0281 15.9647 12.9121Z" fill="#069514"/>
</svg>
